<svg xmlns="http://www.w3.org/2000/svg" version="1.1" xmlns:xlink="http://www.w3.org/1999/xlink" xmlns:svgjs="http://svgjs.com/svgjs" width="200.000000pt" height="200.000000pt"><svg version="1.0" xmlns="http://www.w3.org/2000/svg" width="200.000000pt" height="200.000000pt" viewBox="0 0 200.000000 200.000000" preserveAspectRatio="xMidYMid meet">

<g transform="translate(0.000000,200.000000) scale(0.100000,-0.100000)" fill="#000000" stroke="none">
<path d="M788 1880 c-258 -47 -455 -220 -540 -475 -33 -100 -33 -278 0 -385
30 -94 78 -183 137 -248 l45 -50 0 -289 c0 -268 1 -291 18 -306 17 -15 55 -17
345 -17 394 0 367 -9 367 130 l0 90 92 0 c165 0 217 45 262 227 15 59 31 125
37 146 l10 37 87 0 c95 0 132 14 132 51 0 10 -47 113 -104 227 -88 176 -104
216 -110 271 -32 322 -313 583 -641 596 -49 2 -111 0 -137 -5z m247 -115 c134
-34 257 -121 334 -235 53 -80 80 -155 93 -260 10 -76 19 -102 95 -252 l83
-168 -64 0 c-94 0 -98 -6 -145 -193 -21 -86 -46 -169 -55 -182 -25 -38 -55
-45 -178 -45 -146 0 -148 -2 -148 -122 l0 -88 -260 0 -260 0 0 275 0 275 -55
60 c-97 106 -146 232 -146 378 0 107 13 165 59 262 67 139 207 252 365 295 70
18 209 19 282 0z"></path>
<path d="M887 1413 c-40 -178 -88 -436 -84 -447 5 -11 85 -32 92 -24 4 4 105
495 105 508 0 4 -15 11 -32 15 -18 4 -40 9 -50 11 -13 4 -19 -8 -31 -63z"></path>
<path d="M577 1282 l-67 -68 73 -72 73 -72 34 35 34 35 -34 35 -34 35 34 35
34 35 -34 35 c-19 19 -37 35 -40 35 -3 0 -36 -30 -73 -68z"></path>
<path d="M1100 1315 l-34 -35 34 -35 34 -35 -32 -33 -32 -33 38 -37 38 -37 69
70 69 70 -69 70 c-38 39 -72 70 -75 70 -3 0 -21 -16 -40 -35z"></path>
</g>
</svg><style>@media (prefers-color-scheme: light) { :root { filter: none; } }
@media (prefers-color-scheme: dark) { :root { filter: contrast(0.3846153846153846) brightness(4.5); } }
</style></svg>